<?xml version="1.0" standalone="no"?>
<!DOCTYPE svg PUBLIC "-//W3C//DTD SVG 20010904//EN"
 "http://www.w3.org/TR/2001/REC-SVG-20010904/DTD/svg10.dtd">
<svg version="1.0" xmlns="http://www.w3.org/2000/svg"
 width="369.000000pt" height="118.000000pt" viewBox="0 0 369.000000 118.000000"
 preserveAspectRatio="xMidYMid meet">

<g transform="translate(0.000000,118.000000) scale(0.100000,-0.100000)"
fill="#000000" stroke="none">
<path d="M1867 1026 c-124 -46 -207 -161 -207 -286 0 -105 56 -160 160 -159
45 1 45 1 13 10 -18 5 -39 20 -47 32 -38 59 -27 179 25 284 39 81 86 118 147
118 59 0 82 -28 83 -99 l0 -51 19 65 c23 79 24 90 6 64 -14 -19 -15 -19 -40 5
-31 29 -104 37 -159 17z"/>
<path d="M275 1005 c-16 -15 -25 -36 -25 -55 0 -39 39 -80 75 -80 32 0 85 50
85 80 0 30 -53 80 -85 80 -14 0 -37 -11 -50 -25z"/>
<path d="M1348 1020 c12 -5 22 -15 22 -21 0 -11 -56 -229 -86 -336 -12 -40
-21 -54 -42 -62 -20 -7 18 -10 140 -10 l168 -1 6 28 c3 15 10 42 14 60 11 42
6 41 -21 -8 -12 -22 -37 -46 -55 -55 -37 -17 -110 -20 -119 -5 -4 6 4 53 16
105 20 82 26 95 43 95 32 0 47 -14 55 -51 7 -33 8 -32 24 32 9 36 20 75 24 85
4 11 -9 3 -29 -18 -23 -25 -44 -38 -62 -38 -14 0 -26 3 -26 8 1 28 51 176 62
183 21 14 82 10 105 -6 14 -10 23 -28 25 -53 l3 -37 13 43 c7 24 16 50 19 58
4 12 -20 14 -158 13 -108 0 -156 -3 -141 -9z"/>
<path d="M2148 1020 c12 -5 22 -15 22 -22 0 -7 -16 -81 -36 -163 -35 -145 -36
-152 -20 -188 26 -64 111 -85 193 -47 61 27 95 86 128 223 36 143 51 182 78
195 18 9 11 11 -38 11 -50 0 -56 -2 -37 -11 14 -7 22 -20 22 -35 0 -46 -61
-268 -85 -309 -54 -93 -185 -99 -185 -9 0 34 77 324 90 340 6 7 21 16 33 18
12 2 -25 5 -83 5 -72 1 -98 -2 -82 -8z"/>
<path d="M2588 1020 c12 -5 22 -17 22 -26 0 -9 -21 -97 -47 -196 -45 -174 -48
-181 -77 -194 -28 -12 -23 -13 69 -13 79 0 95 3 78 11 -26 13 -29 -4 32 226
24 90 49 170 55 177 6 8 21 16 33 18 12 2 -25 5 -83 5 -72 1 -98 -2 -82 -8z"/>
<path d="M2828 1020 c12 -5 22 -17 22 -26 0 -9 -21 -97 -47 -196 -45 -173 -48
-181 -77 -195 -28 -12 -17 -13 109 -10 159 4 190 14 260 78 56 52 89 126 89
204 1 70 -17 105 -67 132 -25 14 -61 18 -172 20 -96 2 -133 0 -117 -7z m236
-30 c18 -18 21 -33 21 -108 -1 -72 -5 -97 -26 -142 -30 -63 -70 -107 -116
-126 -38 -16 -79 -18 -88 -4 -8 12 83 358 102 389 13 20 21 22 51 17 20 -3 45
-15 56 -26z"/>
<path d="M3414 948 c-32 -46 -69 -98 -82 -115 -14 -18 -22 -33 -19 -33 3 0 27
29 52 65 26 36 49 65 51 65 2 0 4 -36 4 -80 l0 -80 -61 0 c-37 0 -58 4 -54 10
14 23 -3 7 -25 -22 -20 -28 -20 -30 -3 -15 16 14 34 17 84 15 l64 -3 0 -70 c0
-64 -2 -70 -25 -82 -22 -11 -14 -13 64 -13 78 0 87 2 76 15 -10 12 -34 269
-40 413 -1 31 -31 6 -86 -70z"/>
<path d="M876 999 c-36 -28 -36 -77 0 -113 42 -41 90 -31 119 25 19 36 13 61
-22 89 -33 26 -63 25 -97 -1z"/>
<path d="M569 900 c-77 -40 -163 -60 -255 -60 -88 0 -151 16 -225 56 -27 15
-52 25 -55 22 -10 -10 115 -107 167 -129 27 -12 54 -30 59 -40 32 -59 -14
-275 -100 -474 -35 -80 -40 -95 -32 -95 13 0 115 164 160 260 37 77 47 91 53
75 5 -11 26 -65 47 -120 22 -55 49 -121 61 -147 11 -26 21 -52 21 -57 0 -6 5
-11 10 -11 13 0 13 1 -4 52 -40 121 -72 271 -82 376 -6 68 -5 74 15 88 24 17
54 70 47 83 -3 4 17 18 45 31 27 13 67 41 88 62 l38 39 49 -46 c27 -25 77 -59
111 -76 35 -16 68 -40 74 -51 15 -29 5 -153 -20 -238 -18 -63 -71 -206 -105
-282 -9 -21 -13 -38 -9 -38 18 1 132 186 168 273 15 37 31 67 34 67 4 0 14
-19 22 -42 44 -117 123 -301 126 -291 2 5 -8 50 -22 99 -34 116 -65 284 -65
355 0 43 4 60 20 74 11 10 20 28 21 39 0 16 16 28 61 50 56 27 146 101 135
113 -3 2 -29 -8 -58 -22 -108 -55 -236 -76 -344 -56 -63 12 -185 66 -185 82 0
14 -10 11 -71 -21z"/>
<path d="M610 772 c-43 -35 -4 -94 50 -77 32 10 38 55 10 77 -12 10 -26 18
-30 18 -4 0 -18 -8 -30 -18z"/>
<path d="M805 711 c-23 -20 -114 -41 -179 -41 -49 0 -85 7 -115 20 -24 11 -46
19 -47 17 -6 -5 80 -65 109 -76 16 -6 27 -20 32 -39 7 -36 -21 -160 -58 -252
-15 -35 -25 -66 -23 -68 6 -6 42 50 80 126 20 39 38 72 40 72 1 0 22 -50 46
-110 24 -61 44 -109 46 -107 1 1 -9 45 -22 97 -35 132 -42 214 -20 235 9 9 16
22 16 30 0 7 19 24 43 38 44 26 87 67 71 67 -6 0 -14 -4 -19 -9z"/>
<path d="M1985 700 c-4 -12 -23 -40 -44 -63 -25 -28 -30 -37 -14 -29 29 16 33
15 33 -5 0 -28 11 -7 26 52 15 55 13 90 -1 45z"/>
<path d="M3189 639 l-45 -49 60 0 c60 1 60 1 34 16 -33 17 -32 16 -13 54 9 17
14 30 13 29 -2 0 -24 -23 -49 -50z"/>
<path d="M1321 368 c-5 -13 -23 -58 -40 -101 -36 -89 -35 -87 -17 -87 7 0 19
13 26 30 11 27 17 30 57 30 41 0 46 -3 56 -30 6 -17 17 -30 24 -30 18 0 17 3
-26 110 -40 99 -63 122 -80 78z m47 -70 c11 -27 10 -28 -18 -28 -33 0 -36 7
-18 45 12 28 18 25 36 -17z"/>
<path d="M2410 288 l0 -103 48 -2 c36 -1 52 3 70 19 47 45 6 127 -58 115 -29
-6 -30 -6 -30 33 0 29 -4 40 -15 40 -12 0 -15 -18 -15 -102z m99 -2 c31 -37
-9 -103 -46 -80 -37 23 -24 94 17 94 10 0 23 -6 29 -14z"/>
<path d="M2585 381 c-7 -12 12 -24 25 -16 11 7 4 25 -10 25 -5 0 -11 -4 -15
-9z"/>
<path d="M3250 341 c0 -11 -6 -22 -12 -25 -10 -5 -10 -7 0 -12 7 -3 12 -25 12
-54 0 -52 18 -77 47 -65 16 6 16 8 -4 18 -19 8 -23 18 -23 54 0 36 3 43 20 43
11 0 20 5 20 10 0 6 -9 10 -20 10 -13 0 -20 7 -20 20 0 11 -4 20 -10 20 -5 0
-10 -9 -10 -19z"/>
<path d="M1470 218 c0 -80 3 -98 15 -98 10 0 15 11 15 35 0 33 1 34 29 29 23
-5 35 -1 55 19 31 31 33 56 7 88 -15 19 -29 24 -70 25 l-51 1 0 -99z m99 68
c31 -37 -9 -103 -46 -80 -37 23 -24 94 17 94 10 0 23 -6 29 -14z"/>
<path d="M1656 299 c-17 -13 -26 -30 -26 -49 0 -19 9 -36 26 -49 33 -26 55
-26 84 -3 30 25 30 80 -1 104 -28 23 -50 23 -83 -3z m74 -20 c15 -27 9 -59
-12 -73 -38 -23 -79 35 -52 73 19 27 50 27 64 0z"/>
<path d="M1811 255 c28 -62 28 -67 14 -95 -18 -35 -19 -40 -2 -40 10 0 35 49
95 192 2 4 -3 8 -10 8 -8 0 -23 -21 -35 -47 l-20 -48 -23 48 c-37 74 -54 58
-19 -18z"/>
<path d="M1965 295 c-14 -13 -25 -33 -25 -45 0 -27 43 -70 70 -70 27 0 70 43
70 70 0 27 -43 70 -70 70 -11 0 -32 -11 -45 -25z m74 -9 c31 -37 -9 -103 -46
-80 -37 23 -24 94 17 94 10 0 23 -6 29 -14z"/>
<path d="M2170 315 c0 -3 13 -31 29 -63 18 -36 26 -63 21 -72 -18 -34 -21 -60
-8 -60 10 0 42 63 96 192 2 4 -3 8 -11 8 -8 0 -23 -21 -34 -47 l-20 -48 -24
48 c-12 26 -29 47 -36 47 -7 0 -13 -2 -13 -5z"/>
<path d="M2590 250 c0 -40 4 -70 10 -70 6 0 10 30 10 70 0 40 -4 70 -10 70 -6
0 -10 -30 -10 -70z"/>
<path d="M2666 299 c-33 -26 -34 -62 -1 -94 24 -25 49 -31 79 -19 28 11 17 24
-14 18 -29 -6 -60 8 -60 27 0 5 23 9 51 9 51 0 51 0 45 28 -13 53 -55 66 -100
31z m62 -11 c20 -20 14 -28 -23 -28 -19 0 -35 4 -35 8 0 12 22 32 35 32 6 0
16 -5 23 -12z"/>
<path d="M2800 248 c0 -52 3 -68 14 -68 9 0 12 7 10 18 -3 9 -1 35 3 57 7 30
14 41 31 43 27 4 41 -26 37 -81 -3 -27 1 -37 11 -37 19 0 19 89 -1 117 -12 17
-24 21 -60 20 l-45 -2 0 -67z"/>
<path d="M2975 295 c-14 -13 -25 -33 -25 -45 0 -44 60 -81 104 -64 28 11 17
24 -14 18 -29 -6 -60 8 -60 27 0 5 23 9 50 9 43 0 50 3 50 20 0 26 -34 60 -60
60 -12 0 -32 -11 -45 -25z m73 -17 c3 -15 -4 -18 -32 -18 -38 0 -44 8 -24 28
17 17 52 11 56 -10z"/>
<path d="M3128 309 c-34 -19 -18 -62 27 -71 11 -2 21 -12 23 -22 4 -16 0 -18
-32 -12 -41 8 -51 -10 -12 -20 33 -8 64 3 71 26 8 27 0 38 -41 55 -42 17 -36
40 7 31 30 -6 40 8 13 18 -22 8 -36 7 -56 -5z"/>
<path d="M3354 295 c-50 -50 -11 -114 70 -113 l46 1 0 67 0 67 -46 1 c-36 0
-52 -5 -70 -23z m75 -9 c31 -37 -9 -103 -46 -80 -37 23 -24 94 17 94 10 0 23
-6 29 -14z"/>
<path d="M3509 310 c-1 -5 -1 -93 0 -117 1 -7 5 -13 10 -13 6 0 11 24 13 52 2
43 7 55 26 64 38 19 36 23 -7 21 -22 -1 -41 -4 -42 -7z"/>
</g>
</svg>
